<?xml version="1.0" encoding="UTF-8"?><svg xmlns="http://www.w3.org/2000/svg" xmlns:xlink="http://www.w3.org/1999/xlink" height="1100.4" preserveAspectRatio="xMidYMid meet" version="1.0" viewBox="0.0 0.0 1100.4 1100.4" width="1100.4" zoomAndPan="magnify"><g fill="#272324" id="change1_1"><path d="M 1045.328125 550.183594 C 1045.328125 823.210938 823.210938 1045.328125 550.183594 1045.328125 C 277.15625 1045.328125 55.03125 823.210938 55.03125 550.183594 C 55.03125 277.15625 277.15625 55.03125 550.183594 55.03125 C 823.210938 55.03125 1045.328125 277.15625 1045.328125 550.183594 Z M 1099.871094 550.183594 C 1099.871094 403.359375 1042.691406 265.320312 938.867188 161.5 C 835.046875 57.679688 697.007812 0.5 550.183594 0.5 C 403.355469 0.5 265.320312 57.679688 161.496094 161.5 C 57.675781 265.320312 0.5 403.359375 0.5 550.183594 C 0.5 697.007812 57.675781 835.046875 161.496094 938.867188 C 265.320312 1042.691406 403.355469 1099.871094 550.183594 1099.871094 C 697.007812 1099.871094 835.046875 1042.691406 938.867188 938.867188 C 1042.691406 835.046875 1099.871094 697.007812 1099.871094 550.183594" fill="inherit"/><path d="M 550.183594 55.53125 C 277.433594 55.53125 55.53125 277.429688 55.53125 550.183594 C 55.53125 822.933594 277.433594 1044.828125 550.183594 1044.828125 C 822.933594 1044.828125 1044.828125 822.933594 1044.828125 550.183594 C 1044.828125 277.429688 822.933594 55.53125 550.183594 55.53125 Z M 550.183594 1045.828125 C 276.878906 1045.828125 54.53125 823.484375 54.53125 550.183594 C 54.53125 276.878906 276.878906 54.53125 550.183594 54.53125 C 823.484375 54.53125 1045.828125 276.878906 1045.828125 550.183594 C 1045.828125 823.484375 823.484375 1045.828125 550.183594 1045.828125 Z M 550.183594 1 C 403.492188 1 265.578125 58.128906 161.851562 161.851562 C 58.125 265.578125 1 403.492188 1 550.183594 C 1 696.875 58.125 834.785156 161.851562 938.515625 C 265.578125 1042.238281 403.492188 1099.371094 550.183594 1099.371094 C 696.875 1099.371094 834.789062 1042.238281 938.515625 938.515625 C 1042.238281 834.785156 1099.371094 696.871094 1099.371094 550.183594 C 1099.371094 403.492188 1042.238281 265.578125 938.515625 161.851562 C 834.785156 58.128906 696.875 1 550.183594 1 Z M 550.183594 1100.371094 C 403.222656 1100.371094 265.0625 1043.140625 161.144531 939.222656 C 57.226562 835.304688 0 697.140625 0 550.183594 C 0 403.222656 57.226562 265.0625 161.144531 161.144531 C 265.0625 57.230469 403.226562 0 550.183594 0 C 697.144531 0 835.304688 57.230469 939.222656 161.144531 C 1043.140625 265.0625 1100.371094 403.226562 1100.371094 550.183594 C 1100.371094 697.140625 1043.140625 835.304688 939.222656 939.222656 C 835.308594 1043.140625 697.144531 1100.371094 550.183594 1100.371094" fill="inherit"/><path d="M 568.554688 864.972656 C 568.511719 865.015625 568.464844 865.050781 568.417969 865.09375 C 567.832031 865.671875 567.21875 866.222656 566.578125 866.746094 C 566.425781 866.867188 566.269531 866.980469 566.117188 867.097656 C 565.636719 867.476562 565.140625 867.835938 564.632812 868.179688 C 564.378906 868.351562 564.125 868.519531 563.867188 868.683594 C 563.429688 868.957031 562.980469 869.21875 562.523438 869.46875 C 562.261719 869.613281 562 869.769531 561.730469 869.90625 C 561.097656 870.230469 560.449219 870.53125 559.785156 870.804688 C 559.765625 870.816406 559.738281 870.824219 559.714844 870.832031 C 559.417969 870.953125 559.113281 871.058594 558.8125 871.167969 C 558.355469 871.335938 557.894531 871.5 557.433594 871.644531 C 557.125 871.738281 556.816406 871.824219 556.507812 871.910156 C 556 872.046875 555.492188 872.167969 554.984375 872.277344 C 554.726562 872.328125 554.472656 872.390625 554.210938 872.4375 C 553.441406 872.574219 552.667969 872.691406 551.894531 872.761719 C 551.816406 872.769531 551.738281 872.769531 551.664062 872.777344 C 550.949219 872.835938 550.234375 872.867188 549.523438 872.867188 C 549.28125 872.871094 549.042969 872.863281 548.804688 872.859375 C 548.234375 872.847656 547.667969 872.816406 547.101562 872.769531 C 546.851562 872.75 546.601562 872.734375 546.351562 872.703125 C 545.667969 872.628906 544.984375 872.53125 544.308594 872.402344 C 544.121094 872.367188 543.9375 872.328125 543.75 872.289062 C 543.101562 872.152344 542.460938 871.992188 541.820312 871.8125 C 541.519531 871.722656 541.21875 871.621094 540.914062 871.527344 C 540.464844 871.378906 540.015625 871.222656 539.574219 871.050781 C 539.261719 870.929688 538.953125 870.8125 538.648438 870.683594 C 538.105469 870.453125 537.574219 870.199219 537.046875 869.933594 C 536.757812 869.785156 536.472656 869.636719 536.1875 869.480469 C 535.636719 869.175781 535.089844 868.851562 534.558594 868.507812 C 534.3125 868.347656 534.074219 868.179688 533.835938 868.015625 C 533.367188 867.691406 532.910156 867.351562 532.460938 866.996094 C 532.261719 866.835938 532.0625 866.683594 531.863281 866.519531 C 531.25 866.003906 530.648438 865.46875 530.074219 864.894531 L 325.578125 660.402344 C 314.929688 649.753906 314.929688 632.488281 325.578125 621.839844 C 336.226562 611.191406 353.488281 611.191406 364.140625 621.839844 L 522.089844 779.789062 L 522.089844 254.75 C 522.089844 239.691406 534.296875 227.484375 549.355469 227.484375 C 564.410156 227.484375 576.621094 239.691406 576.621094 254.75 L 576.621094 780.164062 L 736.304688 621.761719 C 741.621094 616.488281 748.5625 613.855469 755.507812 613.855469 C 762.519531 613.855469 769.53125 616.546875 774.863281 621.917969 C 785.46875 632.609375 785.398438 649.871094 774.707031 660.476562 L 568.554688 864.972656" fill="inherit"/><path d="M 344.859375 614.355469 C 337.710938 614.355469 330.988281 617.136719 325.933594 622.195312 C 315.496094 632.628906 315.496094 649.609375 325.933594 660.046875 L 530.429688 864.542969 C 530.933594 865.046875 531.507812 865.570312 532.1875 866.136719 C 532.324219 866.25 532.460938 866.359375 532.601562 866.46875 L 532.769531 866.601562 C 533.210938 866.949219 533.660156 867.285156 534.117188 867.601562 L 534.214844 867.667969 C 534.417969 867.8125 534.621094 867.953125 534.828125 868.085938 C 535.351562 868.425781 535.886719 868.742188 536.429688 869.042969 C 536.710938 869.195312 536.988281 869.34375 537.273438 869.484375 C 537.789062 869.746094 538.3125 869.996094 538.84375 870.222656 C 539.117188 870.339844 539.394531 870.445312 539.675781 870.554688 C 540.1875 870.75 540.628906 870.90625 541.070312 871.050781 L 541.226562 871.101562 C 541.472656 871.179688 541.714844 871.261719 541.960938 871.328125 C 542.582031 871.507812 543.21875 871.667969 543.851562 871.800781 C 544.035156 871.839844 544.21875 871.875 544.398438 871.910156 C 545.046875 872.03125 545.71875 872.132812 546.40625 872.207031 C 546.597656 872.230469 546.785156 872.242188 546.972656 872.257812 L 547.144531 872.273438 C 547.699219 872.320312 548.257812 872.347656 548.8125 872.359375 L 548.96875 872.363281 C 549.152344 872.367188 549.335938 872.371094 549.519531 872.367188 C 550.246094 872.363281 550.953125 872.335938 551.621094 872.277344 L 551.75 872.269531 C 552.558594 872.199219 553.304688 872.09375 554.121094 871.945312 C 554.296875 871.914062 554.46875 871.875 554.636719 871.839844 L 554.878906 871.785156 C 555.378906 871.679688 555.878906 871.5625 556.375 871.429688 C 556.679688 871.347656 556.984375 871.257812 557.285156 871.164062 C 557.738281 871.023438 558.1875 870.867188 558.636719 870.699219 L 558.9375 870.589844 C 559.136719 870.519531 559.332031 870.449219 559.527344 870.367188 C 560.222656 870.085938 560.847656 869.796875 561.503906 869.460938 C 561.679688 869.371094 561.851562 869.273438 562.019531 869.179688 L 562.28125 869.03125 C 562.730469 868.785156 563.171875 868.53125 563.601562 868.257812 C 563.851562 868.101562 564.101562 867.9375 564.351562 867.765625 C 564.851562 867.429688 565.335938 867.074219 565.808594 866.703125 L 566.007812 866.554688 C 566.09375 866.492188 566.179688 866.425781 566.261719 866.359375 C 566.867188 865.867188 567.476562 865.320312 568.070312 864.738281 L 568.160156 864.65625 L 568.554688 864.972656 L 568.203125 864.617188 L 774.355469 660.121094 C 784.835938 649.730469 784.902344 632.746094 774.507812 622.269531 C 769.445312 617.164062 762.695312 614.355469 755.507812 614.355469 C 748.398438 614.355469 741.703125 617.113281 736.65625 622.117188 L 576.121094 781.363281 L 576.121094 254.75 C 576.121094 239.992188 564.113281 227.984375 549.355469 227.984375 C 534.59375 227.984375 522.589844 239.992188 522.589844 254.75 L 522.589844 780.996094 L 363.785156 622.195312 C 358.730469 617.136719 352.007812 614.355469 344.859375 614.355469 Z M 549.460938 873.367188 C 549.285156 873.367188 549.117188 873.367188 548.945312 873.363281 L 548.796875 873.359375 C 548.214844 873.347656 547.636719 873.316406 547.058594 873.269531 L 546.894531 873.253906 C 546.695312 873.238281 546.496094 873.222656 546.296875 873.203125 C 545.585938 873.121094 544.886719 873.019531 544.214844 872.894531 C 544.027344 872.859375 543.835938 872.820312 543.644531 872.78125 C 542.988281 872.640625 542.328125 872.476562 541.683594 872.292969 C 541.425781 872.21875 541.171875 872.136719 540.917969 872.050781 L 540.761719 872 C 540.300781 871.851562 539.847656 871.691406 539.394531 871.515625 C 539.027344 871.375 538.738281 871.265625 538.453125 871.144531 C 537.902344 870.90625 537.359375 870.648438 536.820312 870.378906 C 536.527344 870.230469 536.234375 870.078125 535.945312 869.917969 C 535.363281 869.59375 534.804688 869.261719 534.285156 868.925781 C 534.070312 868.785156 533.855469 868.636719 533.644531 868.488281 L 533.550781 868.425781 C 533.074219 868.09375 532.609375 867.746094 532.152344 867.386719 L 531.984375 867.257812 C 531.835938 867.140625 531.6875 867.023438 531.542969 866.902344 C 530.84375 866.316406 530.246094 865.777344 529.722656 865.25 L 325.226562 660.753906 C 314.398438 649.929688 314.398438 632.3125 325.226562 621.488281 C 330.46875 616.242188 337.441406 613.355469 344.859375 613.355469 C 352.273438 613.355469 359.246094 616.242188 364.492188 621.488281 L 521.589844 778.582031 L 521.589844 254.75 C 521.589844 239.441406 534.042969 226.984375 549.355469 226.984375 C 564.664062 226.984375 577.121094 239.441406 577.121094 254.75 L 577.121094 778.964844 L 735.953125 621.40625 C 741.1875 616.214844 748.132812 613.355469 755.507812 613.355469 C 762.964844 613.355469 769.964844 616.269531 775.21875 621.566406 C 786 632.433594 785.929688 650.050781 775.0625 660.832031 L 568.894531 865.34375 L 568.808594 865.414062 C 568.152344 866.054688 567.523438 866.621094 566.894531 867.132812 C 566.800781 867.210938 566.703125 867.285156 566.605469 867.355469 L 566.425781 867.492188 C 565.933594 867.875 565.433594 868.242188 564.914062 868.59375 C 564.65625 868.769531 564.394531 868.941406 564.132812 869.105469 C 563.6875 869.386719 563.230469 869.652344 562.765625 869.90625 L 562.515625 870.046875 C 562.332031 870.152344 562.144531 870.257812 561.960938 870.351562 C 561.277344 870.699219 560.628906 870.996094 559.980469 871.269531 C 559.695312 871.378906 559.484375 871.457031 559.273438 871.53125 L 558.984375 871.636719 C 558.519531 871.808594 558.054688 871.972656 557.582031 872.121094 C 557.269531 872.21875 556.953125 872.308594 556.636719 872.394531 C 556.121094 872.535156 555.605469 872.65625 555.085938 872.765625 L 554.851562 872.816406 C 554.667969 872.855469 554.484375 872.894531 554.300781 872.929688 C 553.453125 873.082031 552.683594 873.191406 551.9375 873.261719 L 551.792969 873.269531 C 551.015625 873.332031 550.28125 873.363281 549.523438 873.367188 C 549.503906 873.367188 549.480469 873.367188 549.460938 873.367188" fill="inherit"/></g></svg>