<?xml version="1.0" encoding="UTF-8"?><svg xmlns="http://www.w3.org/2000/svg" xmlns:xlink="http://www.w3.org/1999/xlink" height="500.0" preserveAspectRatio="xMidYMid meet" version="1.0" viewBox="0.0 0.0 500.0 500.0" width="500.0" zoomAndPan="magnify"><g id="change1_1"><path d="M241.9,0h16.1v32.3h16.1v64.5h16.1V129h16.1v32.3h16.1v16.1h16.1v16.1H371v16.1h32.3v16.1h32.3v16.1H500v16.1h-32.3v16.1 h-48.4v16.1H371v16.1h-16.1v16.1h-32.3v32.3h-16.1V371h-16.1v48.4h-16.1v48.4h-16.1V500h-16.1v-64.5h-16.1v-44.4h-16.1V371h-16.1 v-32.3h-16.1v-16.1h-16.1v-16.1H129v-16.1H96.8v-16.1H32.3v-16.1H0v-16.1h64.5v-16.1h48.4v-16.1h32.3v-16.1h16.1v-16.1h16.1v-16.1 h16.1v-16.1h16.1v-32.3h16.1V64.5h16.1V0z"/></g></svg>